# xmcd
#
# Track frame offsets:
#	180
#	12411
#	24658
#	37089
#	51156
#	65846
#	79029
#	92668
#	107673
#	121937
#	137868
#	151837
#	165492
#	179600
#	193119
#	206447
#	220408
#	234993
#	249654
#	261525
#	274859
#	289242
#	304215
#	317148
#
# Disc length: 4405 seconds
#
# Revision: 0
# Processed by: cddbd v1.4PL0 Copyright (c) Steve Scherf et al.
# Submitted via: dBpowerAMP V4.0
#
DISCID=6a113318
DTITLE=Various Artist - St. Louis Blues 1925-1941
DYEAR=1995
DGENRE=Blues
TTITLE0=Mr. Johnson's Blues - Johnson, Lonnie
TTITLE1=Cairo Blues - Spaulding, Henry
TTITLE2=Built Right On The Ground - Darby, Teddy
TTITLE3=Fire Detective Blues - Sykes, Roosevelt
TTITLE4=Can't Make Another Day - Johnson, Edith
TTITLE5=The Duck-Yas-Yas-Yas - Johnson, James P.
TTITLE6=Black Men Blues - Johnson, Mary
TTITLE7=It Hurts So Good - Rodgers, Ike
TTITLE8=Deep Morgan Blues - Brown, Henry
TTITLE9=Black And Evil Blues - Moore, Alice
TTITLE10=Don't Put That Thing On Me - Gibson, Clifford 
TTITLE11=Keep It Clean No.2 - Jordan, Charley
TTITLE12=Henry's Worried Blues - Townsend, Henry
TTITLE13=Barefoot Blues - Short, J.D.
TTITLE14=Harvest Moon Blues - McFadden, Charlie
TTITLE15=As True As I've Been - Sykes, Roosevelt
TTITLE16=I Have Made Up My Mind - Oden, Saint Louis Jimmy
TTITLE17=Ain't It A Pity And A Shame? - Wheatstraw, Peetie
TTITLE18=Shack Bully Stomp - Wheatstraw, Peetie
TTITLE19=Don't Take Away My P.W.A. - Gordon, Jimmie
TTITLE20=Everyday I Have The Blues - Sparks, Aaron "Pinetop"
TTITLE21=Somebody's Been Borrowing That Stuff - Williams, Big Joe
TTITLE22=Sweet Sixteen - Davis, Walter
TTITLE23=The Only Woman - Davis, Walter
EXTD=From EPM's Blues Collection series\n\nSubmitted by William Hale
EXTT0=
EXTT1=
EXTT2=
EXTT3=
EXTT4=
EXTT5=
EXTT6=
EXTT7=
EXTT8=
EXTT9=
EXTT10=
EXTT11=
EXTT12=
EXTT13=
EXTT14=
EXTT15=
EXTT16=
EXTT17=
EXTT18=
EXTT19=
EXTT20=
EXTT21=
EXTT22=
EXTT23=
PLAYORDER=
